Coordinates
version=1
nRows=7
nColumns=46
inDegrees=yes

Units are S.I. units (second, meters, Newtons, ...)
Angles are in degrees.

endheader
time	pelvis_tilt	pelvis_list	pelvis_rotation	pelvis_tx	pelvis_ty	pelvis_tz	bb_angle	bb_tx	bb_ty	bb_tz	hip_flexion_r	hip_adduction_r	hip_rotation_r	knee_angle_r	knee_angle_r_beta	ankle_angle_r	subtalar_angle_r	mtp_angle_r	crank_angle_r	hip_flexion_l	hip_adduction_l	hip_rotation_l	knee_angle_l	knee_angle_l_beta	ankle_angle_l	subtalar_angle_l	mtp_angle_l	crank_angle_l	lumbar_extension	lumbar_bending	lumbar_rotation	arm_flex_r	arm_add_r	arm_rot_r	elbow_flex_r	pro_sup_r	wrist_flex_r	wrist_dev_r	arm_flex_l	arm_add_l	arm_rot_l	elbow_flex_l	pro_sup_l	wrist_flex_l	wrist_dev_l
      0.00500000	    -34.19582394	      1.50008369	     -5.40201325	      0.08550473	      0.98325264	     -0.20591487	      0.00000000	      0.50000000	      0.00000000	      0.25000000	    103.05767434	     -8.32786997	     -4.75223531	     84.74954745	      1.47915864	     11.00488382	      2.65641094	      0.00000000	      0.00000000	     72.97140459	    -12.53913516	     -3.85292748	     74.67229030	      1.30327733	    -15.27303135	    -10.71033335	      0.00000000	      0.00000000	    -25.51327265	      0.79910524	      2.68836418	     85.27397533	     -3.57166283	     45.63562109	     21.76576223	     43.65183416	      0.00000000	      0.00000000	     82.60263377	    -13.19503964	     50.57496513	     28.15903909	     45.21446372	      0.00000000	      0.00000000
      0.01000000	    -34.28440211	      1.45158350	     -5.48155120	      0.08556898	      0.98308181	     -0.20576578	      0.00000000	      0.50000000	      0.00000000	      0.25000000	    103.13638551	     -8.25852980	     -4.84511682	     84.74418031	      1.47906497	     10.84746284	      2.55143959	      0.00000000	      0.00000000	     73.07331808	    -12.67907834	     -3.81832863	     74.72490874	      1.30419569	    -15.00313277	    -10.27766488	      0.00000000	      0.00000000	    -25.37139968	      0.84094799	      2.71367136	     85.31387010	     -3.01979074	     44.65704876	     20.97502191	     43.62054116	      0.00000000	      0.00000000	     82.41611831	    -12.95872545	     49.61696547	     27.74853409	     44.97932572	      0.00000000	      0.00000000
      0.01500000	    -34.37448074	      1.45344853	     -5.51789329	      0.08564933	      0.98292165	     -0.20575591	      0.00000000	      0.50000000	      0.00000000	      0.25000000	    103.22288981	     -8.23715441	     -4.87005684	     84.73083804	      1.47883210	     10.83419242	      2.61669702	      0.00000000	      0.00000000	     73.16236490	    -12.73145522	     -3.83278235	     74.76661231	      1.30492356	    -14.89768175	    -10.17044062	      0.00000000	      0.00000000	    -25.25209453	      0.84110989	      2.76484804	     85.22433384	     -3.03175653	     44.27793013	     21.08688040	     43.49877490	      0.00000000	      0.00000000	     82.34511479	    -12.92898552	     49.73940906	     27.66805214	     44.94432673	      0.00000000	      0.00000000
      0.02000000	    -34.36091880	      1.50592467	     -5.49398383	      0.08594305	      0.98310071	     -0.20588515	      0.00000000	      0.50000000	      0.00000000	      0.25000000	    103.20898898	     -8.33083613	     -4.86236499	     84.76875400	      1.47949386	     10.88980835	      2.68766026	      0.00000000	      0.00000000	     73.06732469	    -12.63297810	     -3.87960396	     74.67534293	      1.30333060	    -15.06676084	    -10.49331821	      0.00000000	      0.00000000	    -25.27509321	      0.79350295	      2.73797629	     85.06012796	     -2.94817723	     43.22317623	     21.35788062	     43.32927694	      0.00000000	      0.00000000	     82.13281359	    -12.82070901	     48.78961267	     27.99435477	     44.76216448	      0.00000000	      0.00000000
      0.02500000	    -34.50875965	      1.40484297	     -5.61682326	      0.08594076	      0.98251297	     -0.20557553	      0.00000000	      0.50000000	      0.00000000	      0.25000000	    103.36725054	     -8.20122052	     -4.97250805	     84.78450497	      1.47976877	     10.79602528	      2.72525456	      0.00000000	      0.00000000	     73.19192848	    -12.81430664	     -3.77016690	     74.66817728	      1.30320554	    -14.94063746	    -10.11218141	      0.00000000	      0.00000000	    -25.10314206	      0.86635368	      2.85376357	     85.08847488	     -3.47229464	     46.62566712	     21.37859481	     43.43709512	      0.00000000	      0.00000000	     82.34347886	    -13.54927417	     51.60169755	     28.44487223	     45.01186700	      0.00000000	      0.00000000
      0.03000000	    -34.60284944	      1.36792639	     -5.64071346	      0.08602724	      0.98241711	     -0.20554857	      0.00000000	      0.50000000	      0.00000000	      0.25000000	    103.44591837	     -8.19799188	     -5.04295728	     84.77490135	      1.47960115	     10.74747412	      2.71932762	      0.00000000	      0.00000000	     73.28227859	    -12.85652912	     -3.72979517	     74.66592755	      1.30316627	    -14.96195956	    -10.03371725	      0.00000000	      0.00000000	    -24.98067800	      0.90366765	      2.92957347	     84.95545306	     -3.32385985	     45.53213296	     21.35379194	     43.22509103	      0.00000000	      0.00000000	     82.11019307	    -13.08267190	     50.03302272	     28.14123313	     44.68210998	      0.00000000	      0.00000000
      0.03500000	    -34.65119009	      1.36348303	     -5.66378383	      0.08613647	      0.98234876	     -0.20552108	      0.00000000	      0.50000000	      0.00000000	      0.25000000	    103.48884380	     -8.19599949	     -5.08403365	     84.77388147	      1.47958335	     10.69199351	      2.70032257	      0.00000000	      0.00000000	     73.32074555	    -12.88167356	     -3.72411188	     74.67824713	      1.30338129	    -14.94098521	     -9.99688567	      0.00000000	      0.00000000	    -24.92178936	      0.89910744	      2.95209489	     84.83914906	     -3.17682966	     44.59126169	     21.39582980	     43.14053672	      0.00000000	      0.00000000	     82.01741620	    -12.94464409	     49.47133442	     28.06305087	     44.53379900	      0.00000000	      0.00000000
